# xmcd
#
# Track frame offsets:
#	225
#	18627
#	37645
#	57437
#	77437
#	96809
#	117156
#	137168
#	152821
#	177541
#	193527
#	211150
#	230812
#	250351
#	272031
#	288655
#	305539
#
# Disc length: 4323 seconds
#
# Revision: 0
# Processed by: cddbd v1.5.2PL0 Copyright (c) Steve Scherf et al.
# Submitted via: EasyCDDAExtractor 12.0.0.1
#
DISCID=f210e011
DTITLE=Various Artist - Love Hits '99
DYEAR=1900
DGENRE=Blues
TTITLE0=Dru Hill - How Deep Is Your Love
TTITLE1=Madonna - The Power Of Goodbye
TTITLE2=Jd And Mariah Carey - Sweetheart
TTITLE3=Le Ann Rimes - How Do I Live
TTITLE4=98 Degrees And Stevie Wonder - True To Your Heart
TTITLE5=Lutricia Mcneal - The Greatest Love You'll Ever Know
TTITLE6=Steps - Heartbeat
TTITLE7=Bryan Adams And Melanie C. - When You're Gone
TTITLE8=Lauryn Hill - Ex-Factor
TTITLE9=Eagle-Eye Cherry - Falling In Love
TTITLE10=R'n'g - Darling I Think About You
TTITLE11=Lighthouse Family - Postcards From Heaven
TTITLE12=Lenny Kravitz - I Belong To You
TTITLE13=George Michael And Mary J. Blige - As
TTITLE14=Billie - She Wants You
TTITLE15=Simply Red - Say You Love Me
TTITLE16=Loona - Hijo De La Luna
EXTD=
EXTT0=
EXTT1=
EXTT2=
EXTT3=
EXTT4=
EXTT5=
EXTT6=
EXTT7=
EXTT8=
EXTT9=
EXTT10=
EXTT11=
EXTT12=
EXTT13=
EXTT14=
EXTT15=
EXTT16=
PLAYORDER=
